<?xml version="1.0" encoding="UTF-8" standalone="no"?>
<!-- Created with Inkscape (http://www.inkscape.org/) -->

<svg
   width="880"
   height="300"
   viewBox="0 0 880 300"
   version="1.1"
   id="svg1"
   xml:space="preserve"
   xmlns="http://www.w3.org/2000/svg"
   xmlns:svg="http://www.w3.org/2000/svg"><defs
     id="defs1" /><path
     style="fill:#25252a;fill-opacity:1"
     d="M 0,40 40,0 h 800 l 40,40 v 220 l -40,40 H 40 L 0,260 Z"
     id="BG" /><g
     id="layer1"
     transform="matrix(1,-0.09374477,-0.25141574,1.0235689,124.31275,104.48954)"><rect
       style="fill:#5e5086;fill-opacity:1;stroke-width:1.16914"
       id="rect1"
       width="494.0145"
       height="4.292181"
       x="21.911835"
       y="20.736366" /><rect
       style="fill:#5e5086;fill-opacity:1;stroke-width:1.16914"
       id="rect1-6"
       width="494.0145"
       height="4.292181"
       x="21.911835"
       y="126.0944" /><path
       d="m 528.26119,14.569202 v 20.91899 h 21.86096 v -9.288325 h -12.90534 v -2.890093 l 15.81254,-0.02246 v 12.200577 h 10.71966 V 14.568902 Z"
       style="fill:#5e5086;fill-opacity:1;stroke-width:0.990336"
       id="path16" /><path
       d="m 563.74901,35.110224 h -10.71966 v 89.920466 h -2.9072 V 35.110224 h -9.98073 V 135.64007 h 23.60759 z"
       style="fill:#5e5086;fill-opacity:1;stroke-width:0.990336"
       id="path17" /><path
       d="m 572.01857,14.569508 v 71.595701 h 52.4668 V 112.69842 H 594.95851 V 92.698649 h -22.93994 v 42.941171 h 75.20899 V 64.044118 H 594.75881 V 37.510915 h 52.46875 V 14.569508 Z m 9.99805,10 h 55.21094 v 2.941407 h -52.46875 v 46.222654 h 52.46875 v 51.906251 h -55.21105 l 1.1e-4,-22.94117 h 2.94189 v 19.99977 h 49.52686 V 76.475759 h -52.46875 z"
       style="fill:#5e5086;fill-opacity:1;stroke-width:1.0933"
       id="path5" /><path
       d="m 73.529606,42.378837 v 66.365223 h 12.64062 V 80.300707 h 22.123054 v -37.92187 z m 12.64062,12.64062 h 9.48242 v 12.64063 h -9.48242 z"
       style="fill:#fefefe"
       id="path19" /><path
       d="m 125.14875,42.378837 v 66.363273 l 12.64062,0.002 V 80.300757 h 9.48047 v 28.443353 l 12.64258,-0.002 V 42.378837 Z m 12.64062,12.64062 h 9.48047 v 12.64063 h -9.48047 z"
       style="fill:#fefefe"
       id="path21" /><path
       style="fill:#fefefe;fill-opacity:1"
       d="M 176.76625,108.74287 V 42.377617 h 34.76346 v 22.12246 l -12.64099,3e-5 v -9.4815 h -9.48148 v 41.08417 l 9.48148,-8.9e-4 -8.2e-4,-12.64096 h 12.64181 v 25.281943 z"
       id="path22" /><path
       style="fill:#fefefe;fill-opacity:1"
       d="m 263.14784,55.018117 h -22.12249 l 3e-5,12.64099 h 12.64099 v 12.64099 h -12.64099 l -3e-5,15.8013 h 22.12248 v 12.640983 h -34.76346 l 2e-5,-66.365253 h 34.76344 z"
       id="path23" /><path
       style="fill:#d6d6d6;fill-opacity:1"
       d="m 296.19367,77.216631 h 9.25177 V 61.025471 H 280.0025 v 27.75534 l 16.19055,3e-5 6.2e-4,11.564789 -6.9394,-3e-5 v -6.938719 h -9.25177 v 16.190489 h 25.44294 V 79.529651 l -16.19117,-6.1e-4 v -9.25177 h 6.9394 z"
       id="path24" /><path
       style="fill:#d6d6d6;fill-opacity:1"
       d="m 317.78118,70.277231 3e-5,-9.25177 h 25.44293 v 9.25177 h -8.09529 l 3e-5,39.320149 -9.25244,-3.5e-4 4e-5,-39.320129 z"
       id="path25" /><path
       style="fill:#d6d6d6;fill-opacity:1"
       d="m 393.33849,70.276541 3e-5,-9.25177 h 25.44293 v 9.25177 h -8.09529 l 3e-5,39.320149 -9.25244,-3.5e-4 4e-5,-39.320129 z"
       id="path25-9" /><path
       d="m 355.56097,61.024611 v 48.572269 h 9.25195 V 88.780471 h 6.9375 l 0.002,20.816409 h 9.25195 V 61.024611 Z m 9.25195,9.25195 h 6.93945 v 9.25196 h -6.93945 z"
       style="fill:#d6d6d6"
       id="path27" /><rect
       style="fill:#d6d6d6;fill-opacity:1"
       id="rect27"
       width="9.2517548"
       height="48.57193"
       x="431.11722"
       y="61.024406" /><path
       d="m 452.70515,61.025001 v 48.570309 h 25.44336 V 61.025001 Z m 9.25196,9.25195 h 6.93945 v 30.068359 h -6.93945 z"
       style="fill:#d6d6d6"
       id="path29" /><path
       style="fill:#d6d6d6;fill-opacity:1"
       d="M 490.48338,109.59595 V 61.024061 l 9.25176,3e-5 6.93881,20.81651 5.8e-4,-20.81651 9.25179,-3e-5 v 48.571889 l -9.25179,4e-5 -6.93936,-20.816589 v 20.816549 z"
       id="path30" /><path
       style="fill:#fefefe;fill-opacity:1"
       d="m 152.13047,166.38282 12.641,-1.18503 5.56194,-22.64387 -47.40445,4.44392 11.05191,5.28444 -7.94536,32.34731 22.12164,-2.07378 -3.97187,16.17364 -9.4817,0.88974 2.3838,-9.70497 -12.64099,1.18503 -5.56172,22.64298 34.76346,-3.25889 10.32878,-42.05072 -22.12226,2.07302 3.17814,-12.93893 9.48147,-0.88884 z"
       id="path14-4"
       transform="matrix(1.0235689,0.09374477,0.25141574,1,-153.51298,-116.14321)" /></g></svg>
