<?xml version="1.0" encoding="UTF-8" standalone="no"?>
<!-- Created with Inkscape (http://www.inkscape.org/) -->

<svg
   width="256"
   height="256"
   viewBox="0 0 256 256"
   version="1.1"
   id="svg1"
   xml:space="preserve"
   xmlns="http://www.w3.org/2000/svg"
   xmlns:svg="http://www.w3.org/2000/svg"><defs
     id="defs1" /><g
     id="layer1"
     transform="matrix(1,-0.13274336,-0.1171875,1.0155559,15,15)"><path
       style="fill:#d5d5d5;fill-opacity:1;stroke-width:2.14589"
       d="M 82.119688,79.148878 H 109.24593 V 31.676412 l -74.598686,0.0021 V 113.0548 h 47.470685 l 0.0018,33.90791 -20.346225,0.002 v -20.34635 h -27.12626 v 47.4706 H 109.24593 V 85.930417 l -47.472467,-0.0018 V 58.802416 h 20.346225 z"
       id="path14" /><path
       style="fill:#d5d5d5;fill-opacity:1;stroke-width:2.14589"
       d="m 169.52883,79.148877 h 27.12625 V 31.676411 l -74.59869,0.0021 V 113.0548 h 47.47068 l 0.002,33.90791 -20.34622,0.002 v -20.34635 h -27.12646 v 47.4706 h 74.59869 V 85.930416 l -47.47247,-0.0018 V 58.802415 h 20.34622 z"
       id="path14-4" /><path
       style="fill:#5e5086;fill-opacity:1"
       d="M 87.267426,130.60796 H 113.112 l 34.84167,52.00861 -34.84167,52.00861 H 87.267426 l 34.788964,-52.00861 z"
       id="path1" /><path
       style="fill:#5e5086;fill-opacity:1"
       d="m 121.73478,129.9267 h 25.84457 c 23.38902,34.88148 46.73635,69.79086 70.08633,104.69848 H 191.7684 l -21.89548,-32.73319 -22.29357,32.05193 h -25.84457 l 34.78896,-52.00861 z"
       id="path1-8" /><path
       style="fill:#5e5086;fill-opacity:1"
       d="m 176.82584,161.1 h 57.79934 v 17.35664 H 188.4162 Z"
       id="path2" /><path
       style="fill:#5e5086;fill-opacity:1"
       d="m 194.13515,187.35468 40.49003,-1.1e-4 v 17.35685 l -28.89967,-1e-4 z"
       id="path2-3" /></g></svg>
