<?xml version="1.0" encoding="UTF-8" standalone="no"?>
<!-- Created with Inkscape (http://www.inkscape.org/) -->

<svg
   width="400"
   height="210"
   viewBox="0 0 400 210"
   version="1.1"
   id="svg1"
   xml:space="preserve"
   xmlns="http://www.w3.org/2000/svg"
   xmlns:svg="http://www.w3.org/2000/svg"><defs
     id="defs1" /><g
     id="layer1"><rect
       style="fill:#2354e2;fill-opacity:1;stroke-width:0.990336"
       id="rect1"
       width="354.46262"
       height="4.292181"
       x="21.911835"
       y="20.736366" /><rect
       style="fill:#2354e2;fill-opacity:1;stroke-width:0.990336"
       id="rect1-6"
       width="354.46262"
       height="4.292181"
       x="21.911835"
       y="183.12389" /><text
       xml:space="preserve"
       style="font-style:normal;font-variant:normal;font-weight:normal;font-stretch:normal;font-size:50.8px;font-family:Consolas;-inkscape-font-specification:Consolas;fill:#2354e2;fill-opacity:1;stroke-width:0.264583"
       x="70.604622"
       y="89.34845"
       id="text13"><tspan
         id="tspan13"
         style="fill:#2354e2;fill-opacity:1;stroke-width:0.264583"
         x="70.604622"
         y="89.34845" /></text><path
       d="m 270.78168,42.380553 v 20.91899 h 21.86096 V 54.011218 H 279.7373 v -2.890093 l 15.81254,-0.02246 V 63.299242 H 306.2695 V 42.380253 Z"
       style="fill:#2354e2;stroke-width:0.990336"
       id="path16" /><path
       d="m 306.2695,62.921575 h -10.71966 v 89.920465 h -2.9072 V 62.921575 h -9.98073 V 163.45142 h 23.60759 z"
       style="fill:#2354e2;stroke-width:0.990336"
       id="path17" /><path
       d="m 314.53906,42.380859 v 71.595701 h 52.4668 v 26.53321 H 337.479 V 120.51 h -22.93994 v 42.94117 h 75.20899 V 91.855469 H 337.2793 V 65.322266 h 52.46875 V 42.380859 Z m 9.99805,10 h 55.21094 v 2.941407 H 327.2793 v 46.222654 h 52.46875 v 51.90625 H 324.537 l 1.1e-4,-22.94117 h 2.94189 v 19.99977 h 49.52686 v -46.22266 h -52.46875 z"
       style="fill:#2354e2;stroke-width:1.0933"
       id="path5" /><text
       xml:space="preserve"
       style="font-size:192px;font-family:'OCR A Extended';-inkscape-font-specification:'OCR A Extended';fill:#fefefe;fill-opacity:1"
       x="-124.62862"
       y="174.1736"
       id="text14"><tspan
         id="tspan14" /></text><path
       style="fill:#fefefe;fill-opacity:1"
       d="m 44.034296,64.501057 h 12.641 v -22.12247 l -34.76346,0.0011 v 37.92187 h 22.12164 l 8.2e-4,15.8013 -9.48147,8.8e-4 v -9.4815 h -12.64099 v 22.121603 h 34.76346 V 67.661397 l -22.12247,-8.2e-4 v -12.641 h 9.48147 z"
       id="path14" /><path
       d="m 73.529606,42.378837 v 66.365223 h 12.64062 V 80.300707 h 22.123054 v -37.92187 z m 12.64062,12.64062 h 9.48242 v 12.64063 h -9.48242 z"
       style="fill:#fefefe"
       id="path19" /><path
       d="m 125.14875,42.378837 v 66.363273 l 12.64062,0.002 V 80.300757 h 9.48047 v 28.443353 l 12.64258,-0.002 V 42.378837 Z m 12.64062,12.64062 h 9.48047 v 12.64063 h -9.48047 z"
       style="fill:#fefefe"
       id="path21" /><path
       style="fill:#fefefe;fill-opacity:1"
       d="M 176.76625,108.74287 V 42.377617 h 34.76346 v 22.12246 l -12.64099,3e-5 v -9.4815 h -9.48148 v 41.08417 l 9.48148,-8.9e-4 -8.2e-4,-12.64096 h 12.64181 v 25.281943 z"
       id="path22" /><path
       style="fill:#fefefe;fill-opacity:1"
       d="m 263.14784,55.018117 h -22.12249 l 3e-5,12.64099 h 12.64099 v 12.64099 h -12.64099 l -3e-5,15.8013 h 22.12248 v 12.640983 h -34.76346 l 2e-5,-66.365253 h 34.76344 z"
       id="path23" /><path
       style="fill:#d6d6d6;fill-opacity:1"
       d="m 38.103005,136.15226 h 9.25177 V 119.9611 h -25.44294 v 27.75534 l 16.19055,3e-5 6.2e-4,11.56479 -6.9394,-3e-5 v -6.93872 h -9.25177 V 168.533 h 25.44294 v -30.06772 l -16.19117,-6.1e-4 v -9.25177 h 6.9394 z"
       id="path24" /><path
       style="fill:#d6d6d6;fill-opacity:1"
       d="m 59.690513,129.21286 3e-5,-9.25177 h 25.44293 v 9.25177 h -8.09529 l 3e-5,39.32015 -9.25244,-3.5e-4 4e-5,-39.32013 z"
       id="path25" /><path
       style="fill:#d6d6d6;fill-opacity:1"
       d="m 135.24783,129.21217 3e-5,-9.25177 h 25.44293 v 9.25177 h -8.09529 l 3e-5,39.32015 -9.25244,-3.5e-4 4e-5,-39.32013 z"
       id="path25-9" /><path
       d="m 97.470303,119.96024 v 48.57227 h 9.251957 V 147.7161 h 6.9375 l 0.002,20.81641 h 9.25195 v -48.57227 z m 9.251957,9.25195 h 6.93945 v 9.25196 h -6.93945 z"
       style="fill:#d6d6d6"
       id="path27" /><rect
       style="fill:#d6d6d6;fill-opacity:1"
       id="rect27"
       width="9.2517548"
       height="48.57193"
       x="173.02655"
       y="119.96004" /><path
       d="m 194.61449,119.96063 v 48.57031 h 25.44336 v -48.57031 z m 9.25196,9.25195 h 6.93945 v 30.06836 h -6.93945 z"
       style="fill:#d6d6d6"
       id="path29" /><path
       style="fill:#d6d6d6;fill-opacity:1"
       d="m 232.39272,168.53158 v -48.57189 l 9.25176,3e-5 6.93881,20.81651 5.8e-4,-20.81651 9.25179,-3e-5 v 48.57189 l -9.25179,4e-5 -6.93936,-20.81659 v 20.81655 z"
       id="path30" /></g></svg>
